<svg id="레이어_1" data-name="레이어 1" xmlns="http://www.w3.org/2000/svg" viewBox="0 0 131.91 51.31"><defs><style>.cls-1{fill:#141414;}.cls-2{fill:#3f3f3f;}</style></defs><title>대지 5</title><path class="cls-1" d="M17.66,12.87h.85c.64,0,1,.3,1,.85a.75.75,0,0,1-.57.79v0l.77,1.36h-.39l-.73-1.3H18v1.3h-.34Zm.83,1.45c.46,0,.62-.2.62-.6s-.18-.55-.63-.55H18v1.15Z"/><path class="cls-1" d="M19.88,14.42v-.07c0-1,.49-1.53,1.29-1.53s1.28.54,1.28,1.53v.07c0,1-.49,1.53-1.29,1.53S19.88,15.41,19.88,14.42Zm2.2.07v-.14c0-.73-.26-1.23-.92-1.24s-.91.49-.91,1.17v.14c0,.73.27,1.24.92,1.24S22.08,15.16,22.08,14.49Z"/><path class="cls-1" d="M22.74,14.42v-.07c0-1,.48-1.53,1.29-1.53s1.27.54,1.27,1.53v.07c0,1-.48,1.53-1.28,1.53S22.74,15.41,22.74,14.42Zm2.19.07v-.14c0-.73-.26-1.23-.92-1.24s-.9.49-.9,1.17v.14c0,.73.26,1.24.91,1.24S24.93,15.16,24.93,14.49Z"/><path class="cls-1" d="M25.76,12.87h.51l.85,2.56h0L28,12.87h.51v3h-.35V13.34h0l-.86,2.56h-.32l-.85-2.56h0V15.9h-.32Z"/><path class="cls-1" d="M30.76,13.17h-.9v-.3H32v.3H31.1V15.9h-.34Z"/><path class="cls-1" d="M32.19,14.42v-.07c0-1,.49-1.53,1.29-1.53s1.28.54,1.28,1.53v.07c0,1-.49,1.53-1.29,1.53S32.19,15.41,32.19,14.42Zm2.2.07v-.14c0-.73-.26-1.23-.92-1.24s-.91.49-.91,1.17v.14c0,.73.27,1.24.92,1.24S34.39,15.16,34.39,14.49Z"/><path class="cls-1" d="M35.21,12.87h.91c.65,0,1,.33,1,.89a.86.86,0,0,1-.93.93h-.6V15.9h-.35Zm.88,1.52c.45,0,.63-.2.63-.6s-.16-.62-.64-.62h-.52v1.22Z"/><path class="cls-1" d="M37.51,12.87h.35v3h-.35Z"/><path class="cls-1" d="M39.28,12.87h.33l1.07,3h-.36L40,15H38.83l-.3.88H38.2Zm-.35,1.84h1l-.48-1.36h0Z"/><path class="cls-2" d="M17.72,18v-.1A.58.58,0,0,0,18,18c.15,0,.21-.07.21-.19s0-.14-.16-.18l-.1,0a.27.27,0,0,1-.22-.28c0-.16.1-.27.31-.27a.44.44,0,0,1,.24.06v.1a.5.5,0,0,0-.24-.06c-.12,0-.19.06-.19.16s0,.14.15.18l.09,0c.15.06.24.12.24.29s-.1.3-.33.3A.52.52,0,0,1,17.72,18Z"/><path class="cls-2" d="M19.07,17.59v0c0-.33.16-.52.44-.52s.43.18.43.52v0c0,.33-.16.52-.44.52S19.07,17.93,19.07,17.59Zm.74,0v-.05c0-.25-.08-.42-.31-.42s-.3.16-.3.39v.05c0,.25.08.42.31.42S19.81,17.85,19.81,17.62Z"/><path class="cls-2" d="M20.73,17.07h.12V18h.45v.11h-.57Z"/><path class="cls-2" d="M22,17.07h.13l.29.86h0l.29-.86h.11l-.36,1h-.11Z"/><path class="cls-2" d="M23.56,17.07h.59v.1h-.48v.34H24v.11h-.37V18h.48v.11h-.59Z"/><path class="cls-2" d="M26.17,17.69l-.33-.62H26l.26.51h0l.26-.51h.11l-.32.62v.41h-.12Z"/><path class="cls-2" d="M27.3,17.59v0c0-.33.17-.52.44-.52s.44.18.44.52v0c0,.33-.17.52-.44.52S27.3,17.93,27.3,17.59Zm.75,0v-.05c0-.25-.09-.42-.31-.42s-.31.16-.31.39v.05c0,.25.09.42.31.42S28.05,17.85,28.05,17.62Z"/><path class="cls-2" d="M29,17.74v-.68h.12v.67c0,.22.09.29.25.29s.25-.07.25-.29v-.67h.11v.68c0,.26-.12.37-.36.37A.33.33,0,0,1,29,17.74Z"/><path class="cls-2" d="M30.53,17.07h.29c.22,0,.32.1.32.28a.25.25,0,0,1-.19.27h0l.26.47h-.13l-.25-.45h-.19v.45h-.11Zm.28.49c.15,0,.21-.07.21-.2s-.06-.19-.21-.19h-.17v.39Z"/><path class="cls-2" d="M32.9,17.59v0c0-.37.2-.51.46-.51a.43.43,0,0,1,.24.06v.1a.66.66,0,0,0-.25-.06c-.19,0-.32.12-.32.39v.05c0,.27.09.42.32.42a.54.54,0,0,0,.26-.07V18a.54.54,0,0,1-.27.07C33.07,18.11,32.9,17.94,32.9,17.59Z"/><path class="cls-2" d="M34.4,17.07h.11v.44H35v-.44h.12v1H35v-.48h-.5v.48H34.4Z"/><path class="cls-2" d="M35.92,17.59v0c0-.33.17-.52.44-.52s.43.18.43.52v0c0,.33-.16.52-.43.52S35.92,17.93,35.92,17.59Zm.75,0v-.05c0-.25-.09-.42-.32-.42s-.3.16-.3.39v.05c0,.25.09.42.31.42S36.67,17.85,36.67,17.62Z"/><path class="cls-2" d="M37.59,17.07h.12v1h-.12Z"/><path class="cls-2" d="M38.51,17.59v0c0-.37.19-.51.45-.51a.43.43,0,0,1,.24.06v.1a.66.66,0,0,0-.25-.06c-.19,0-.32.12-.32.39v.05c0,.27.09.42.32.42a.51.51,0,0,0,.26-.07V18a.48.48,0,0,1-.27.07C38.67,18.11,38.51,17.94,38.51,17.59Z"/><path class="cls-2" d="M40,17.07h.59v.1h-.47v.34h.36v.11h-.36V18h.47v.11H40Z"/><path class="cls-1" d="M15.09,17.93l0,0a.05.05,0,0,1,0-.08,4,4,0,1,0-6.37,0,.06.06,0,0,1-.09.07,4.06,4.06,0,0,1-.83-2.47,4.11,4.11,0,0,1,8.21,0,4.06,4.06,0,0,1-.83,2.47A.05.05,0,0,1,15.09,17.93Z"/><path class="cls-1" d="M12.92,14.23H10.79a.06.06,0,0,1-.06-.06.84.84,0,0,1,.84-.83h.57a.84.84,0,0,1,.84.83A.06.06,0,0,1,12.92,14.23Zm-2.06-.12h2a.71.71,0,0,0-.71-.65h-.57A.72.72,0,0,0,10.86,14.11Z"/><path class="cls-1" d="M12,13.46h-.27a.06.06,0,0,1-.06-.06v-.22a.2.2,0,0,1,.2-.19.2.2,0,0,1,.19.19v.22A.06.06,0,0,1,12,13.46Zm-.21-.12h.15v-.16a.07.07,0,0,0-.07-.07.07.07,0,0,0-.08.07Z"/><path class="cls-1" d="M11.86,13.11a.07.07,0,0,1-.07-.06V11.4a.07.07,0,0,1,.07-.06.06.06,0,0,1,.06.06v1.65A.06.06,0,0,1,11.86,13.11Z"/><path class="cls-1" d="M10.62,17.4H9.1A.05.05,0,0,1,9,17.34a.06.06,0,0,1,.06-.06h1.52a.06.06,0,0,1,.06.06A.06.06,0,0,1,10.62,17.4Z"/><path class="cls-1" d="M10.17,17.15h0a.05.05,0,0,1-.05-.07l.16-.85H9.42l.16.85s0,.06-.05.07-.06,0-.07,0l-.17-.92a0,0,0,0,1,0-.05l0,0h1l.05,0a0,0,0,0,1,0,.05l-.17.92A.06.06,0,0,1,10.17,17.15Z"/><path class="cls-1" d="M14.31,17.93H11.77a.52.52,0,0,1-.51-.51.48.48,0,0,1,.15-.36.46.46,0,0,1,.2-.13l.07-.47a.06.06,0,0,1,.06-.05h.2a.29.29,0,0,1,.22,0,.7.7,0,0,1,.3.46h1.2l.07-.45a.06.06,0,0,1,.06-.05H14a.31.31,0,0,1,.23,0,.78.78,0,0,1,.32.53,3.12,3.12,0,0,1,.06.49c0,.12,0,.23,0,.32a.06.06,0,0,1,0,.06A.5.5,0,0,1,14.31,17.93Zm-2.52-1.4-.07.46a.07.07,0,0,1,0,.05.44.44,0,0,0-.19.1.41.41,0,0,0-.11.28.4.4,0,0,0,.18.33.39.39,0,0,0,.21.06h2.54a.41.41,0,0,0,.18,0,2.33,2.33,0,0,1,0-.29,2.86,2.86,0,0,0-.06-.46.68.68,0,0,0-.25-.45.2.2,0,0,0-.15,0h-.17l-.07.45a.06.06,0,0,1-.06.05h-1.3a.06.06,0,0,1-.06-.05.67.67,0,0,0-.24-.42.2.2,0,0,0-.15,0h-.17Z"/><path class="cls-1" d="M11.39,18.73h0a.06.06,0,0,1-.05-.06l.14-.87s0-.06.07-.05a.05.05,0,0,1,.05.07l-.14.86A.06.06,0,0,1,11.39,18.73Z"/><path class="cls-1" d="M12.72,18.73h0c-.06,0-.18-.15-.25-.85a.06.06,0,0,1,.05-.06.05.05,0,0,1,.07.05c.06.63.16.74.17.75a.05.05,0,0,1,0,.07A.05.05,0,0,1,12.72,18.73Zm0-.12Zm0,0Z"/><path class="cls-1" d="M11.74,16.53h-.8a.06.06,0,0,1-.06-.06.06.06,0,0,1,.06-.06h.8a.05.05,0,0,1,.06.06A.06.06,0,0,1,11.74,16.53Z"/><path class="cls-1" d="M13.44,18.73h0a.06.06,0,0,1,0-.06l.13-.8a.05.05,0,0,1,.07-.05s.05,0,.05.07l-.13.79A.06.06,0,0,1,13.44,18.73Z"/><path class="cls-1" d="M14.55,17.86h0a.09.09,0,0,1,0-.05,2.92,2.92,0,0,1,0-.33,2.86,2.86,0,0,0-.06-.46.68.68,0,0,0-.25-.45.2.2,0,0,0-.15,0h-.17l-.07.45a.06.06,0,0,1-.06.05H12.49a.06.06,0,0,1-.06-.06V15.85a.85.85,0,0,1,.85-.84H14a.84.84,0,0,1,.84.84v1.57a.54.54,0,0,1-.14.36l-.1.07ZM14,16.4a.32.32,0,0,1,.17.05.78.78,0,0,1,.32.53,3.12,3.12,0,0,1,.06.49c0,.07,0,.14,0,.21a.37.37,0,0,0,.1-.26V15.85a.72.72,0,0,0-.72-.72h-.7a.73.73,0,0,0-.73.72v1.06h1.11l.07-.45a.06.06,0,0,1,.06-.05H14Z"/><path class="cls-1" d="M14.76,18.73h0c-.07,0-.18-.15-.25-.85V17.8a.06.06,0,0,1,.06-.06.06.06,0,0,1,.06.05v.07c.06.63.16.74.17.75a.05.05,0,0,1,0,.07A.06.06,0,0,1,14.76,18.73Zm0-.12Z"/><path class="cls-1" d="M13.79,16.53H13a.06.06,0,0,1-.06-.06.06.06,0,0,1,.06-.06h.8a.06.06,0,0,1,.06.06A.06.06,0,0,1,13.79,16.53Z"/><path class="cls-1" d="M9.17,18.68H9a.05.05,0,0,1-.05,0,.07.07,0,0,1,0,0l.28-1a.05.05,0,0,1,.06,0h.21s0,0,0,0,0,0,0,.05l-.28,1A.06.06,0,0,1,9.17,18.68Zm-.12-.13h.08l.25-.87H9.29Z"/><path class="cls-1" d="M10.92,17.68H8.8a.06.06,0,0,1-.06-.06v-.53A.06.06,0,0,1,8.8,17h2.12a.06.06,0,0,1,.06.06v.53A.06.06,0,0,1,10.92,17.68Zm-2.06-.12h2v-.41h-2Z"/><path class="cls-1" d="M10.76,18.68h-.2a.06.06,0,0,1-.06-.05l-.29-1a.09.09,0,0,1,0-.05.06.06,0,0,1,0,0h.21a.05.05,0,0,1,.06,0l.28,1a.07.07,0,0,1,0,0S10.78,18.68,10.76,18.68Zm-.16-.13h.08l-.24-.87h-.09Z"/><path class="cls-1" d="M9.82,16.23l0,0a.94.94,0,0,1-.35-.67,1,1,0,0,1,.36-.76.06.06,0,0,1,.08.08.94.94,0,0,0-.32.68.84.84,0,0,0,.31.58.07.07,0,0,1,0,.09Z"/><path class="cls-1" d="M9.84,16.23a.06.06,0,0,1-.06-.06v-1a.06.06,0,0,1,.12,0v1A.06.06,0,0,1,9.84,16.23Z"/><path class="cls-1" d="M9.85,16.23l0,0a.06.06,0,0,1,0-.09.88.88,0,0,0,.3-.58.94.94,0,0,0-.32-.68.06.06,0,0,1,.08-.08,1,1,0,0,1,.36.76.94.94,0,0,1-.35.67Z"/></svg>