<svg id="레이어_1" data-name="레이어 1" xmlns="http://www.w3.org/2000/svg" viewBox="0 0 1405.82 393.35"><defs><style>.cls-1{fill:#141414;}.cls-2{fill:#3f3f3f;}</style></defs><title>대지 1</title><path class="cls-1" d="M311.5,167.41h13.85c10.51,0,15.77,4.93,15.77,13.82,0,7.06-3.41,11-9.31,12.94v.37l12.64,22.2h-6.39L326.2,195.57h-9.09v21.17H311.5ZM325,191c7.46,0,10.16-3.31,10.16-9.7,0-6.11-2.91-9-10.23-9h-7.81V191Z"/><path class="cls-1" d="M347.72,192.63v-1.18c0-15.51,7.89-24.85,21-24.85,12.86,0,20.74,8.75,20.74,24.93v1.17c0,15.51-7.88,24.85-21,24.85C355.61,217.55,347.72,208.8,347.72,192.63Zm35.73,1.17v-2.27c0-12-4.19-20.07-15-20.15-9.8,0-14.7,7.94-14.7,19v2.28c0,11.91,4.26,20.14,14.91,20.14C378.55,212.77,383.45,204.76,383.45,193.8Z"/><path class="cls-1" d="M394.17,192.63v-1.18c0-15.51,7.89-24.85,21-24.85,12.85,0,20.73,8.75,20.73,24.93v1.17c0,15.51-7.88,24.85-20.95,24.85S394.17,208.8,394.17,192.63Zm35.73,1.17v-2.27c0-12-4.19-20.07-15-20.15-9.8,0-14.7,7.94-14.7,19v2.28c0,11.91,4.26,20.14,14.92,20.14C425,212.77,429.9,204.76,429.9,193.8Z"/><path class="cls-1" d="M443.32,167.41h8.38l13.78,41.68h.14l13.71-41.68h8.31v49.33H482V175.06h-.21l-13.92,41.68h-5.26l-13.78-41.68h-.21v41.68h-5.26Z"/><path class="cls-1" d="M524.72,172.34H510.16v-4.93h34.66v4.93H530.26v44.4h-5.54Z"/><path class="cls-1" d="M548.08,192.63v-1.18c0-15.51,7.89-24.85,21-24.85,12.85,0,20.73,8.75,20.73,24.93v1.17c0,15.51-7.88,24.85-21,24.85C556,217.55,548.08,208.8,548.08,192.63Zm35.73,1.17v-2.27c0-12-4.19-20.07-15-20.15-9.8,0-14.7,7.94-14.7,19v2.28c0,11.91,4.26,20.14,14.92,20.14C578.91,212.77,583.81,204.76,583.81,193.8Z"/><path class="cls-1" d="M597.23,167.41h14.71c10.72,0,15.9,5.3,15.9,14.56,0,9.7-6.1,15-15.19,15h-9.73v19.78h-5.69Zm14.28,24.7c7.39,0,10.3-3.16,10.3-9.77,0-7-2.7-10-10.44-10h-8.45v19.77Z"/><path class="cls-1" d="M634.66,167.41h5.61v49.33h-5.61Z"/><path class="cls-1" d="M663.36,167.41h5.47l17.4,49.33h-5.9l-5-14.41H656.18l-4.9,14.41h-5.39Zm-5.54,30h15.69l-7.74-22.21h-.14Z"/><path class="cls-2" d="M312.46,251.64V250a9.84,9.84,0,0,0,4.53,1.1c2.49,0,3.57-1.2,3.57-3s-.8-2.42-2.75-3.07l-1.57-.58c-2.26-.77-3.54-2-3.54-4.52s1.66-4.44,5-4.44a8,8,0,0,1,3.93.92V238a8.91,8.91,0,0,0-4-.93c-2,0-3.09,1-3.09,2.6s.58,2.3,2.41,2.94l1.59.53c2.39.85,3.91,1.9,3.91,4.72s-1.64,4.87-5.43,4.87A9.12,9.12,0,0,1,312.46,251.64Z"/><path class="cls-2" d="M334.47,244.28v-.4c0-5.27,2.68-8.44,7.14-8.44s7.05,3,7.05,8.46v.4c0,5.27-2.68,8.44-7.12,8.44S334.47,249.77,334.47,244.28Zm12.14.4v-.78c0-4.07-1.43-6.81-5.09-6.84-3.33,0-5,2.7-5,6.44v.78c0,4,1.45,6.84,5.07,6.84C344.94,251.12,346.61,248.4,346.61,244.68Z"/><path class="cls-2" d="M361.53,235.71h1.93V250.8h7.31v1.67h-9.24Z"/><path class="cls-2" d="M381.76,235.71h2l4.85,14.09h.05l4.82-14.09h1.81l-5.86,16.76h-1.78Z"/><path class="cls-2" d="M407.5,235.71h9.6v1.68h-7.7V243h5.94v1.68H409.4v6.12h7.77v1.67H407.5Z"/><path class="cls-2" d="M450.06,245.88l-5.33-10.17h2l4.31,8.32h.05l4.3-8.32h1.83l-5.31,10.17v6.59h-1.88Z"/><path class="cls-2" d="M468.51,244.28v-.4c0-5.27,2.68-8.44,7.14-8.44s7,3,7,8.46v.4c0,5.27-2.67,8.44-7.11,8.44S468.51,249.77,468.51,244.28Zm12.13.4v-.78c0-4.07-1.42-6.81-5.09-6.84-3.33,0-5,2.7-5,6.44v.78c0,4,1.45,6.84,5.07,6.84C479,251.12,480.64,248.4,480.64,244.68Z"/><path class="cls-2" d="M495.47,246.65v-11h1.93v10.86c0,3.55,1.45,4.64,4.13,4.64s4-1.07,4-4.66V235.69h1.78v10.94c0,4.27-2,6.14-5.84,6.14S495.47,250.82,495.47,246.65Z"/><path class="cls-2" d="M521,235.71h4.71c3.57,0,5.35,1.68,5.35,4.7a4.18,4.18,0,0,1-3.16,4.39v.13l4.29,7.54H530l-4-7.19h-3.08v7.19H521Zm4.58,8c2.54,0,3.45-1.12,3.45-3.3s-1-3-3.47-3h-2.65v6.34Z"/><path class="cls-2" d="M559.64,244.28v-.5c0-6,3.23-8.34,7.36-8.34a7.93,7.93,0,0,1,4,.92V238a10.18,10.18,0,0,0-4.08-.9c-3.06,0-5.23,1.9-5.23,6.34v.83c0,4.29,1.54,6.79,5.26,6.79a8.29,8.29,0,0,0,4.22-1.1v1.67a8.59,8.59,0,0,1-4.46,1.1C562.32,252.74,559.64,250,559.64,244.28Z"/><path class="cls-2" d="M583.93,235.71h1.93V243H594v-7.27h1.91v16.76H594v-7.82h-8.1v7.82h-1.93Z"/><path class="cls-2" d="M608.77,244.28v-.4c0-5.27,2.67-8.44,7.14-8.44s7,3,7,8.46v.4c0,5.27-2.68,8.44-7.12,8.44S608.77,249.77,608.77,244.28Zm12.13.4v-.78c0-4.07-1.42-6.81-5.09-6.84-3.33,0-5,2.7-5,6.44v.78c0,4,1.44,6.84,5.06,6.84C619.24,251.12,620.9,248.4,620.9,244.68Z"/><path class="cls-2" d="M635.92,235.71h1.91v16.76h-1.91Z"/><path class="cls-2" d="M650.82,244.28v-.5c0-6,3.24-8.34,7.36-8.34a7.93,7.93,0,0,1,4,.92V238a10.17,10.17,0,0,0-4.07-.9c-3.07,0-5.24,1.9-5.24,6.34v.83c0,4.29,1.54,6.79,5.26,6.79a8.29,8.29,0,0,0,4.22-1.1v1.67a8.59,8.59,0,0,1-4.46,1.1C653.5,252.74,650.82,250,650.82,244.28Z"/><path class="cls-2" d="M675.13,235.71h9.6v1.68H677V243H683v1.68H677v6.12h7.77v1.67h-9.68Z"/><path class="cls-1" d="M269.64,249.72a1,1,0,0,1-.6-.2,1,1,0,0,1-.19-1.38,64.86,64.86,0,1,0-103.59,0,1,1,0,0,1-1.58,1.19,66.83,66.83,0,1,1,106.75,0A1,1,0,0,1,269.64,249.72Z"/><path class="cls-1" d="M234.33,189.57H199.78a1,1,0,0,1-1-1A13.6,13.6,0,0,1,212.38,175h9.35a13.59,13.59,0,0,1,13.58,13.59A1,1,0,0,1,234.33,189.57Zm-33.52-2H233.3A11.64,11.64,0,0,0,221.73,177h-9.35A11.63,11.63,0,0,0,200.81,187.6Z"/><path class="cls-1" d="M219.29,177h-4.47a1,1,0,0,1-1-1v-3.46a3.23,3.23,0,0,1,6.45,0V176A1,1,0,0,1,219.29,177Zm-3.48-2h2.49v-2.47a1.25,1.25,0,1,0-2.49,0Z"/><path class="cls-1" d="M217.05,171.28a1,1,0,0,1-1-1V143.48a1,1,0,1,1,2,0V170.3A1,1,0,0,1,217.05,171.28Z"/><path class="cls-1" d="M196.94,241.18H172.15a1,1,0,1,1,0-2h24.79a1,1,0,0,1,0,2Z"/><path class="cls-1" d="M189.61,237.12l-.19,0a1,1,0,0,1-.78-1.15l2.63-13.86H177.4l2.6,13.84a1,1,0,1,1-1.94.36l-2.82-15a1,1,0,0,1,.21-.81,1,1,0,0,1,.76-.36h16.25a1,1,0,0,1,1,1.17l-2.85,15A1,1,0,0,1,189.61,237.12Z"/><path class="cls-1" d="M257.08,249.72H215.63A8.3,8.3,0,0,1,213,233.54l1.23-7.72a1,1,0,0,1,1-.83h3.14a5.32,5.32,0,0,1,3.73.68c2.14,1.22,3.75,3.72,4.8,7.44h19.52l1.17-7.29a1,1,0,0,1,1-.83h3.13a5.38,5.38,0,0,1,3.78.7c2.33,1.36,4,4.25,5.06,8.61a45.66,45.66,0,0,1,1,7.95c.1,2,.22,3.72.36,5.29a1,1,0,0,1-.46.93A8.23,8.23,0,0,1,257.08,249.72Zm-41-22.76-1.2,7.51a1,1,0,0,1-.74.8,6.31,6.31,0,0,0-4.83,6.15,6.34,6.34,0,0,0,6.33,6.32h41.45a6.22,6.22,0,0,0,2.82-.66c-.12-1.42-.22-3-.32-4.73a42.52,42.52,0,0,0-1-7.59c-1.1-4.7-2.82-6.58-4.07-7.33a3.42,3.42,0,0,0-2.45-.51.84.84,0,0,1-.27,0h-2.41l-1.16,7.3a1,1,0,0,1-1,.83H226.13a1,1,0,0,1-1-.75c-.88-3.5-2.26-5.9-4-6.92a3.38,3.38,0,0,0-2.43-.5.78.78,0,0,1-.26,0Z"/><path class="cls-1" d="M209.54,262.72h-.16a1,1,0,0,1-.82-1.13l2.24-14.1a1,1,0,0,1,1.95.31l-2.24,14.1A1,1,0,0,1,209.54,262.72Z"/><path class="cls-1" d="M231.07,262.72l-.27,0c-1-.3-3-2.5-4.07-13.86a1,1,0,1,1,2-.19c1,10.25,2.61,12,2.81,12.21a1,1,0,0,1-.44,1.87Zm.28-1.93Zm0,0h0Z"/><path class="cls-1" d="M215.22,227h-13a1,1,0,1,1,0-2h13a1,1,0,1,1,0,2Z"/><path class="cls-1" d="M242.86,262.72h-.16a1,1,0,0,1-.81-1.13l2.06-13a1,1,0,0,1,2,.31l-2.07,13A1,1,0,0,1,242.86,262.72Z"/><path class="cls-1" d="M260.94,248.62a1,1,0,0,1-.44-.11,1,1,0,0,1-.54-.79c-.15-1.6-.27-3.35-.38-5.37a42.52,42.52,0,0,0-1-7.59c-1.1-4.7-2.82-6.58-4.07-7.33a3.42,3.42,0,0,0-2.45-.51.84.84,0,0,1-.27,0h-2.41l-1.16,7.3a1,1,0,0,1-1,.83H227.42a1,1,0,0,1-1-1V216a13.76,13.76,0,0,1,13.74-13.74h11.47A13.76,13.76,0,0,1,265.39,216v25.45a8.3,8.3,0,0,1-2.43,5.87,8.53,8.53,0,0,1-1.5,1.18A1,1,0,0,1,260.94,248.62Zm-8.33-23.73a5.68,5.68,0,0,1,2.85.8c2.33,1.36,4,4.25,5.06,8.61a45.66,45.66,0,0,1,1,7.95c.06,1.23.13,2.36.21,3.42a6.3,6.3,0,0,0,1.64-4.25V216a11.78,11.78,0,0,0-11.77-11.77H240.17A11.78,11.78,0,0,0,228.4,216v17.14h18l1.17-7.29a1,1,0,0,1,1-.83h3.13A4.4,4.4,0,0,1,252.61,224.89Z"/><path class="cls-1" d="M264.4,262.72l-.27,0c-1.05-.3-3-2.5-4.07-13.86,0-.36-.07-.73-.1-1.12a1,1,0,1,1,2-.16c0,.37.07.73.1,1.08,1,10.26,2.61,12,2.82,12.22a1,1,0,0,1-.44,1.87Zm.46-1.85Z"/><path class="cls-1" d="M248.55,227h-13a1,1,0,0,1,0-2h13a1,1,0,1,1,0,2Z"/><path class="cls-1" d="M173.37,261.91h-3.26a1,1,0,0,1-1-1.25l4.49-16.25a1,1,0,0,1,.95-.73H178a1,1,0,0,1,.78.39,1,1,0,0,1,.17.87l-4.64,16.26A1,1,0,0,1,173.37,261.91Zm-2-2h1.21l4.08-14.28h-1.35Z"/><path class="cls-1" d="M201.81,245.66H167.27a1,1,0,0,1-1-1v-8.54a1,1,0,0,1,1-1h34.54a1,1,0,0,1,1,1v8.54A1,1,0,0,1,201.81,245.66Zm-33.55-2h32.57v-6.56H168.26Z"/><path class="cls-1" d="M199.2,261.91H196a1,1,0,0,1-.95-.71l-4.65-16.26a1,1,0,0,1,.17-.87,1,1,0,0,1,.78-.39h3.41a1,1,0,0,1,.95.73l4.49,16.25a1,1,0,0,1-1,1.25Zm-2.51-2h1.21L194,245.66h-1.35Z"/><path class="cls-1" d="M183.86,222.08a1,1,0,0,1-.64-.23c-1.27-1.09-5.42-5.1-5.64-10.92-.16-4.24,1.8-8.44,5.84-12.48a1,1,0,1,1,1.39,1.4c-3.63,3.63-5.4,7.33-5.26,11,.19,5,3.84,8.53,5,9.49a1,1,0,0,1,.1,1.39A1,1,0,0,1,183.86,222.08Z"/><path class="cls-1" d="M184.25,222.08a1,1,0,0,1-1-1V204.84a1,1,0,1,1,2,0V221.1A1,1,0,0,1,184.25,222.08Z"/><path class="cls-1" d="M184.5,222.08a1,1,0,0,1-.75-.34,1,1,0,0,1,.1-1.39c1.12-1,4.77-4.47,5-9.49.14-3.68-1.63-7.38-5.26-11a1,1,0,1,1,1.39-1.4c4,4,6,8.24,5.84,12.48-.22,5.82-4.37,9.83-5.64,10.92A1,1,0,0,1,184.5,222.08Z"/></svg>