<svg id="레이어_1" data-name="레이어 1" xmlns="http://www.w3.org/2000/svg" viewBox="0 0 3190.18 671.94"><defs><style>.cls-1{fill:#141414;}.cls-2{fill:#3f3f3f;}</style></defs><title>대지 7</title><path class="cls-1" d="M440.46,261.81h23.63c17.94,0,26.9,8.4,26.9,23.58,0,12.05-5.81,18.82-15.87,22.08v.63L496.69,346H485.78l-20.23-36.13H450V346h-9.57Zm23,40.27c12.72,0,17.32-5.65,17.32-16.56,0-10.41-5-15.31-17.45-15.31H450v31.87Z"/><path class="cls-1" d="M502.27,304.84v-2c0-26.47,13.45-42.4,35.87-42.4,21.94,0,35.39,14.93,35.39,42.53v2c0,26.47-13.45,42.4-35.75,42.4C515.72,347.36,502.27,332.43,502.27,304.84Zm61,2V303c0-20.45-7.15-34.25-25.57-34.38-16.73,0-25.09,13.55-25.09,32.37v3.89c0,20.32,7.27,34.37,25.45,34.37C554.86,339.21,563.23,325.54,563.23,306.84Z"/><path class="cls-1" d="M581.53,304.84v-2c0-26.47,13.45-42.4,35.87-42.4,21.94,0,35.39,14.93,35.39,42.53v2c0,26.47-13.45,42.4-35.75,42.4C595,347.36,581.53,332.43,581.53,304.84Zm61,2V303c0-20.45-7.15-34.25-25.57-34.38-16.73,0-25.09,13.55-25.09,32.37v3.89c0,20.32,7.27,34.37,25.45,34.37C634.13,339.21,642.49,325.54,642.49,306.84Z"/><path class="cls-1" d="M665.4,261.81h14.3l23.51,71.13h.24l23.39-71.13H741V346h-9.7V274.86H731L707.21,346h-9l-23.51-71.12h-.36V346h-9Z"/><path class="cls-1" d="M804.29,270.21H779.44v-8.4h59.14v8.4H813.74V346h-9.45Z"/><path class="cls-1" d="M844.16,304.84v-2c0-26.47,13.45-42.4,35.87-42.4,21.94,0,35.39,14.93,35.39,42.53v2c0,26.47-13.45,42.4-35.75,42.4C857.61,347.36,844.16,332.43,844.16,304.84Zm61,2V303c0-20.45-7.15-34.25-25.57-34.38-16.73,0-25.09,13.55-25.09,32.37v3.89c0,20.32,7.27,34.37,25.45,34.37C896.76,339.21,905.12,325.54,905.12,306.84Z"/><path class="cls-1" d="M928,261.81h25.08c18.3,0,27.15,9,27.15,24.84,0,16.56-10.42,25.59-25.93,25.59H937.72V346H928ZM952.39,304C965,304,970,298.57,970,287.28c0-11.92-4.61-17.07-17.82-17.07H937.72V304Z"/><path class="cls-1" d="M991.9,261.81h9.57V346H991.9Z"/><path class="cls-1" d="M1040.86,261.81h9.33L1079.88,346h-10.06l-8.6-24.58h-32.6L1020.26,346h-9.21ZM1031.4,313h26.79L1045,275.11h-.24Z"/><path class="cls-2" d="M442.09,405.54v-2.85a16.94,16.94,0,0,0,7.74,1.87c4.24,0,6.09-2,6.09-5.15,0-2.94-1.36-4.14-4.69-5.24l-2.68-1c-3.87-1.33-6.05-3.37-6.05-7.72s2.84-7.58,8.6-7.58a13.65,13.65,0,0,1,6.71,1.58v2.85a15.15,15.15,0,0,0-6.83-1.58c-3.37,0-5.27,1.71-5.27,4.43s1,3.92,4.12,5l2.71.9c4.08,1.45,6.67,3.24,6.67,8,0,5-2.8,8.31-9.26,8.31A15.65,15.65,0,0,1,442.09,405.54Z"/><path class="cls-2" d="M479.66,393v-.68c0-9,4.57-14.4,12.18-14.4,7.45,0,12,5.07,12,14.44V393c0,9-4.57,14.41-12.14,14.41S479.66,402.35,479.66,393Zm20.71.68v-1.32c0-6.94-2.43-11.63-8.69-11.67-5.68,0-8.52,4.6-8.52,11V393c0,6.91,2.47,11.68,8.64,11.68C497.52,404.65,500.37,400,500.37,393.65Z"/><path class="cls-2" d="M525.83,378.36h3.3v25.73H541.6V407H525.83Z"/><path class="cls-2" d="M560.36,378.36h3.37l8.27,24h.09l8.23-24h3.09l-10,28.59h-3Z"/><path class="cls-2" d="M604.26,378.36h16.39v2.85H607.52v9.59h10.12v2.85H607.52v10.44h13.25V407H604.26Z"/><path class="cls-2" d="M676.9,395.7l-9.1-17.34h3.46l7.37,14.19h.08L686,378.36h3.13l-9,17.34V407H676.9Z"/><path class="cls-2" d="M708.38,393v-.68c0-9,4.56-14.4,12.18-14.4,7.45,0,12,5.07,12,14.44V393c0,9-4.57,14.41-12.14,14.41S708.38,402.35,708.38,393Zm20.7.68v-1.32c0-6.94-2.43-11.63-8.69-11.67-5.68,0-8.52,4.6-8.52,11V393c0,6.91,2.47,11.68,8.65,11.68C726.24,404.65,729.08,400,729.08,393.65Z"/><path class="cls-2" d="M754.38,397V378.31h3.29v18.54c0,6,2.47,7.92,7,7.92s6.8-1.83,6.8-8v-18.5h3V397c0,7.28-3.37,10.48-10,10.48S754.38,404.14,754.38,397Z"/><path class="cls-2" d="M797.88,378.36h8c6.1,0,9.14,2.85,9.14,8,0,4.09-2,6.39-5.39,7.5v.21L817,407h-3.71l-6.87-12.27h-5.27V407h-3.25ZM805.7,392c4.32,0,5.89-1.91,5.89-5.62,0-3.54-1.69-5.2-5.93-5.2h-4.53V392Z"/><path class="cls-2" d="M863.88,393v-.85c0-10.23,5.52-14.23,12.56-14.23a13.53,13.53,0,0,1,6.79,1.58v2.81a17.18,17.18,0,0,0-7-1.54c-5.22,0-8.93,3.24-8.93,10.83V393c0,7.33,2.63,11.59,9,11.59a14.34,14.34,0,0,0,7.21-1.87v2.85a14.67,14.67,0,0,1-7.62,1.88C868.45,407.42,863.88,402.64,863.88,393Z"/><path class="cls-2" d="M905.32,378.36h3.3v12.4h13.83v-12.4h3.25V407h-3.25V393.61H908.62V407h-3.3Z"/><path class="cls-2" d="M947.71,393v-.68c0-9,4.57-14.4,12.18-14.4,7.45,0,12,5.07,12,14.44V393c0,9-4.57,14.41-12.14,14.41S947.71,402.35,947.71,393Zm20.7.68v-1.32c0-6.94-2.43-11.63-8.68-11.67-5.68,0-8.53,4.6-8.53,11V393c0,6.91,2.48,11.68,8.65,11.68C965.57,404.65,968.41,400,968.41,393.65Z"/><path class="cls-2" d="M994,378.36h3.25V407H994Z"/><path class="cls-2" d="M1019.47,393v-.85c0-10.23,5.52-14.23,12.56-14.23a13.53,13.53,0,0,1,6.79,1.58v2.81a17.18,17.18,0,0,0-7-1.54c-5.23,0-8.93,3.24-8.93,10.83V393c0,7.33,2.63,11.59,9,11.59a14.34,14.34,0,0,0,7.21-1.87v2.85a14.67,14.67,0,0,1-7.62,1.88C1024,407.42,1019.47,402.64,1019.47,393Z"/><path class="cls-2" d="M1061,378.36h16.38v2.85H1064.2v9.59h10.13v2.85H1064.2v10.44h13.26V407H1061Z"/><path class="cls-1" d="M369,402.26a1.69,1.69,0,0,1-1.34-2.7,110.66,110.66,0,1,0-176.77,0,1.68,1.68,0,1,1-2.68,2,114,114,0,1,1,182.14,0A1.69,1.69,0,0,1,369,402.26Z"/><path class="cls-1" d="M308.77,299.62H249.82a1.68,1.68,0,0,1-1.68-1.68,23.21,23.21,0,0,1,23.18-23.18h15.95a23.21,23.21,0,0,1,23.19,23.18A1.69,1.69,0,0,1,308.77,299.62Zm-57.19-3.37H307a19.85,19.85,0,0,0-19.75-18.12H271.32A19.85,19.85,0,0,0,251.58,296.25Z"/><path class="cls-1" d="M283.11,278.13h-7.63a1.69,1.69,0,0,1-1.68-1.69v-5.89a5.5,5.5,0,0,1,11,0v5.89A1.69,1.69,0,0,1,283.11,278.13Zm-5.94-3.37h4.26v-4.21a2.13,2.13,0,0,0-4.26,0Z"/><path class="cls-1" d="M279.3,268.42a1.69,1.69,0,0,1-1.69-1.69V221a1.69,1.69,0,0,1,3.37,0v45.77A1.69,1.69,0,0,1,279.3,268.42Z"/><path class="cls-1" d="M245,387.69h-42.3a1.69,1.69,0,1,1,0-3.37H245a1.69,1.69,0,1,1,0,3.37Z"/><path class="cls-1" d="M232.47,380.75a1.16,1.16,0,0,1-.32,0,1.68,1.68,0,0,1-1.34-2l4.49-23.65H211.63l4.44,23.61a1.68,1.68,0,0,1-1.34,2,1.7,1.7,0,0,1-2-1.35l-4.82-25.61a1.69,1.69,0,0,1,1.66-2h27.74a1.68,1.68,0,0,1,1.3.61,1.65,1.65,0,0,1,.35,1.39l-4.87,25.64A1.68,1.68,0,0,1,232.47,380.75Z"/><path class="cls-1" d="M347.6,402.26H276.87a14.17,14.17,0,0,1-10-24.19,14.29,14.29,0,0,1,5.57-3.43l2.09-13.17a1.7,1.7,0,0,1,1.67-1.42h5.34a9.18,9.18,0,0,1,6.38,1.17c3.64,2.08,6.39,6.35,8.18,12.7H329.4l2-12.45a1.69,1.69,0,0,1,1.66-1.42h5.35a9.19,9.19,0,0,1,6.45,1.21c4,2.31,6.88,7.25,8.62,14.69a77.81,77.81,0,0,1,1.78,13.56c.18,3.39.38,6.35.62,9a1.67,1.67,0,0,1-.78,1.58A14.1,14.1,0,0,1,347.6,402.26Zm-70-38.84-2,12.81a1.7,1.7,0,0,1-1.27,1.38,10.8,10.8,0,0,0,2.56,21.28H347.6a10.77,10.77,0,0,0,4.81-1.13c-.2-2.44-.38-5.09-.54-8.08a74.14,74.14,0,0,0-1.69-13c-1.88-8-4.81-11.21-6.94-12.49a5.79,5.79,0,0,0-4.2-.87,1.74,1.74,0,0,1-.45.06h-4.11l-2,12.45a1.69,1.69,0,0,1-1.66,1.42H294.78a1.68,1.68,0,0,1-1.63-1.27c-1.5-6-3.86-10.07-6.83-11.82a5.76,5.76,0,0,0-4.14-.84,1.76,1.76,0,0,1-.46.06Z"/><path class="cls-1" d="M266.47,424.45l-.27,0a1.7,1.7,0,0,1-1.4-1.93l3.83-24.07A1.69,1.69,0,0,1,272,399L268.13,423A1.68,1.68,0,0,1,266.47,424.45Z"/><path class="cls-1" d="M303.22,424.45a1.47,1.47,0,0,1-.46-.07c-1.78-.51-5.05-4.25-6.94-23.64a1.68,1.68,0,0,1,3.35-.33c1.7,17.5,4.45,20.52,4.8,20.85a1.68,1.68,0,0,1-.75,3.19Zm.47-3.31Zm0,0h0Z"/><path class="cls-1" d="M276.18,363.42H254a1.69,1.69,0,1,1,0-3.37h22.19a1.69,1.69,0,0,1,0,3.37Z"/><path class="cls-1" d="M323.33,424.45l-.26,0a1.68,1.68,0,0,1-1.4-1.93l3.53-22.19a1.69,1.69,0,0,1,3.33.53L325,423A1.69,1.69,0,0,1,323.33,424.45Z"/><path class="cls-1" d="M354.19,400.38a1.68,1.68,0,0,1-1.68-1.54c-.25-2.72-.45-5.72-.64-9.16a74.14,74.14,0,0,0-1.69-13c-1.88-8-4.81-11.21-6.94-12.49a5.79,5.79,0,0,0-4.2-.87,1.74,1.74,0,0,1-.45.06h-4.11l-2,12.45a1.69,1.69,0,0,1-1.66,1.42H297a1.68,1.68,0,0,1-1.68-1.68V344.67a23.48,23.48,0,0,1,23.45-23.45h19.57a23.48,23.48,0,0,1,23.45,23.45v43.42a14.08,14.08,0,0,1-4.15,10,13.77,13.77,0,0,1-2.56,2A1.72,1.72,0,0,1,354.19,400.38ZM340,359.89a9.68,9.68,0,0,1,4.87,1.37c4,2.31,6.88,7.25,8.62,14.69a77.81,77.81,0,0,1,1.78,13.56c.11,2.1.23,4,.36,5.84a10.73,10.73,0,0,0,2.8-7.26V344.67a20.11,20.11,0,0,0-20.08-20.08H318.75a20.11,20.11,0,0,0-20.08,20.08v29.25H329.4l2-12.45a1.69,1.69,0,0,1,1.66-1.42h5.35A7.41,7.41,0,0,1,340,359.89Z"/><path class="cls-1" d="M360.09,424.45a1.53,1.53,0,0,1-.47-.07c-1.78-.51-5.05-4.25-6.94-23.64-.06-.62-.12-1.25-.17-1.91a1.68,1.68,0,1,1,3.35-.28c.06.64.11,1.25.18,1.85,1.7,17.51,4.44,20.53,4.8,20.86a1.68,1.68,0,0,1-.75,3.19Zm.78-3.16Z"/><path class="cls-1" d="M333,363.42H310.85a1.69,1.69,0,0,1,0-3.37H333a1.69,1.69,0,1,1,0,3.37Z"/><path class="cls-1" d="M204.75,423.06H199.2a1.68,1.68,0,0,1-1.62-2.13l7.66-27.74a1.68,1.68,0,0,1,1.62-1.24h5.81a1.67,1.67,0,0,1,1.34.67,1.7,1.7,0,0,1,.28,1.48l-7.92,27.74A1.69,1.69,0,0,1,204.75,423.06Zm-3.33-3.37h2.06l7-24.37h-2.3Z"/><path class="cls-1" d="M253.29,395.32H194.35a1.69,1.69,0,0,1-1.69-1.68V379.07a1.69,1.69,0,0,1,1.69-1.68h58.94a1.69,1.69,0,0,1,1.69,1.68v14.57A1.69,1.69,0,0,1,253.29,395.32ZM196,392h55.58V380.76H196Z"/><path class="cls-1" d="M248.83,423.06h-5.55a1.69,1.69,0,0,1-1.62-1.22l-7.92-27.74a1.69,1.69,0,0,1,1.62-2.15h5.81a1.7,1.7,0,0,1,1.63,1.24l7.65,27.74a1.71,1.71,0,0,1-.28,1.47A1.69,1.69,0,0,1,248.83,423.06Zm-4.28-3.37h2.06l-6.72-24.37h-2.3Z"/><path class="cls-1" d="M222.66,355.1a1.61,1.61,0,0,1-1.09-.41c-2.17-1.85-9.26-8.69-9.63-18.62-.28-7.24,3.08-14.4,10-21.29a1.68,1.68,0,0,1,2.38,2.38c-6.19,6.2-9.22,12.52-9,18.78.33,8.57,6.56,14.56,8.46,16.2a1.68,1.68,0,0,1-1.1,3Z"/><path class="cls-1" d="M223.31,355.1a1.68,1.68,0,0,1-1.68-1.68V325.68a1.69,1.69,0,1,1,3.37,0v27.74A1.68,1.68,0,0,1,223.31,355.1Z"/><path class="cls-1" d="M223.74,355.1a1.68,1.68,0,0,1-1.09-3c1.9-1.63,8.12-7.63,8.45-16.2.24-6.26-2.78-12.58-9-18.78a1.69,1.69,0,0,1,2.39-2.38c6.88,6.89,10.23,14.05,10,21.29-.38,9.93-7.47,16.77-9.63,18.62A1.65,1.65,0,0,1,223.74,355.1Z"/></svg>