<svg id="레이어_1" data-name="레이어 1" xmlns="http://www.w3.org/2000/svg" viewBox="0 0 1274.7 357.43"><defs><style>.cls-1{fill:#141414;}.cls-2{fill:#3f3f3f;}</style></defs><title>대지 15</title><path class="cls-1" d="M189.46,163.73h10.71c8.13,0,12.19,3.81,12.19,10.69,0,5.46-2.63,8.53-7.19,10v.28L215,201.88H210l-9.17-16.37h-7v16.37h-4.34ZM199.9,182c5.76,0,7.85-2.56,7.85-7.5,0-4.72-2.25-6.94-7.91-6.94h-6V182Z"/><path class="cls-1" d="M217.47,183.23v-.91c0-12,6.1-19.21,16.26-19.21,9.94,0,16,6.76,16,19.27v.91c0,12-6.1,19.21-16.21,19.21S217.47,195.74,217.47,183.23Zm27.63.91v-1.76c0-9.27-3.24-15.52-11.59-15.58-7.58,0-11.37,6.14-11.37,14.67v1.76c0,9.21,3.3,15.58,11.53,15.58C241.31,198.81,245.1,192.61,245.1,184.14Z"/><path class="cls-1" d="M253.39,183.23v-.91c0-12,6.1-19.21,16.26-19.21,9.94,0,16,6.76,16,19.27v.91c0,12-6.1,19.21-16.21,19.21S253.39,195.74,253.39,183.23Zm27.63.91v-1.76c0-9.27-3.24-15.52-11.59-15.58-7.58,0-11.37,6.14-11.37,14.67v1.76c0,9.21,3.3,15.58,11.53,15.58C277.23,198.81,281,192.61,281,184.14Z"/><path class="cls-1" d="M291.4,163.73h6.48L308.53,196h.11l10.6-32.24h6.43v38.15h-4.39V169.65h-.17l-10.76,32.23h-4.07l-10.65-32.23h-.17v32.23H291.4Z"/><path class="cls-1" d="M354.34,167.54H343.08v-3.81h26.8v3.81H358.62v34.34h-4.28Z"/><path class="cls-1" d="M372.41,183.23v-.91c0-12,6.1-19.21,16.26-19.21,9.94,0,16,6.76,16,19.27v.91c0,12-6.09,19.21-16.2,19.21S372.41,195.74,372.41,183.23Zm27.62.91v-1.76c0-9.27-3.24-15.52-11.58-15.58-7.58,0-11.37,6.14-11.37,14.67v1.76c0,9.21,3.29,15.58,11.53,15.58C396.25,198.81,400,192.61,400,184.14Z"/><path class="cls-1" d="M410.42,163.73h11.37c8.29,0,12.3,4.1,12.3,11.26,0,7.5-4.73,11.6-11.76,11.6h-7.52v15.29h-4.39Zm11,19.11c5.71,0,8-2.45,8-7.57,0-5.4-2.09-7.73-8.07-7.73h-6.54v15.3Z"/><path class="cls-1" d="M439.36,163.73h4.34v38.15h-4.34Z"/><path class="cls-1" d="M461.55,163.73h4.23l13.45,38.15h-4.56l-3.89-11.14H456l-3.79,11.14H448Zm-4.28,23.2H469.4l-6-17.17h-.11Z"/><path class="cls-2" d="M190.2,228.87v-1.29a7.64,7.64,0,0,0,3.51.85c1.92,0,2.76-.93,2.76-2.34s-.62-1.87-2.13-2.38l-1.21-.44c-1.75-.6-2.74-1.52-2.74-3.49s1.29-3.44,3.9-3.44a6.32,6.32,0,0,1,3,.71v1.3a6.9,6.9,0,0,0-3.1-.72c-1.53,0-2.39.77-2.39,2s.45,1.78,1.87,2.28l1.23.4c1.85.66,3,1.47,3,3.65s-1.27,3.77-4.2,3.77A7.16,7.16,0,0,1,190.2,228.87Z"/><path class="cls-2" d="M207.23,223.17v-.3c0-4.08,2.07-6.53,5.52-6.53s5.45,2.3,5.45,6.54v.31c0,4.08-2.07,6.53-5.51,6.53S207.23,227.42,207.23,223.17Zm9.38.31v-.6c0-3.14-1.1-5.27-3.94-5.29-2.57,0-3.86,2.09-3.86,5v.59c0,3.13,1.12,5.29,3.92,5.29C215.32,228.46,216.61,226.36,216.61,223.48Z"/><path class="cls-2" d="M228.15,216.55h1.49v11.66h5.66v1.3h-7.15Z"/><path class="cls-2" d="M243.8,216.55h1.53l3.75,10.89h0l3.73-10.89h1.4l-4.53,13h-1.38Z"/><path class="cls-2" d="M263.7,216.55h7.42v1.29h-5.95v4.35h4.59v1.29h-4.59v4.73h6v1.3H263.7Z"/><path class="cls-2" d="M296.61,224.41l-4.12-7.86h1.57l3.33,6.43h0l3.32-6.43h1.42l-4.1,7.86v5.1h-1.46Z"/><path class="cls-2" d="M310.88,223.17v-.3c0-4.08,2.07-6.53,5.52-6.53s5.44,2.3,5.44,6.54v.31c0,4.08-2.07,6.53-5.5,6.53S310.88,227.42,310.88,223.17Zm9.38.31v-.6c0-3.14-1.1-5.27-3.94-5.29-2.57,0-3.86,2.09-3.86,5v.59c0,3.13,1.12,5.29,3.92,5.29C319,228.46,320.26,226.36,320.26,223.48Z"/><path class="cls-2" d="M331.73,225v-8.48h1.49v8.4c0,2.74,1.12,3.59,3.19,3.59s3.08-.83,3.08-3.61v-8.38h1.38V225c0,3.3-1.53,4.75-4.52,4.75S331.73,228.23,331.73,225Z"/><path class="cls-2" d="M351.44,216.55h3.63c2.76,0,4.15,1.29,4.15,3.63a3.23,3.23,0,0,1-2.45,3.4v.1l3.32,5.83h-1.68L355.3,224h-2.39v5.56h-1.47Zm3.54,6.2c2,0,2.67-.87,2.67-2.55s-.77-2.36-2.69-2.36h-2v4.91Z"/><path class="cls-2" d="M381.35,223.17v-.38c0-4.64,2.5-6.45,5.69-6.45a6.23,6.23,0,0,1,3.08.71v1.28a7.8,7.8,0,0,0-3.16-.7c-2.37,0-4,1.47-4,4.91v.63c0,3.33,1.2,5.26,4.07,5.26a6.56,6.56,0,0,0,3.27-.85v1.29a6.67,6.67,0,0,1-3.45.85C383.42,229.72,381.35,227.56,381.35,223.17Z"/><path class="cls-2" d="M400.13,216.55h1.49v5.62h6.27v-5.62h1.47v13h-1.47v-6h-6.27v6h-1.49Z"/><path class="cls-2" d="M419.34,223.17v-.3c0-4.08,2.07-6.53,5.52-6.53s5.44,2.3,5.44,6.54v.31c0,4.08-2.07,6.53-5.5,6.53S419.34,227.42,419.34,223.17Zm9.38.31v-.6c0-3.14-1.1-5.27-3.94-5.29-2.57,0-3.86,2.09-3.86,5v.59c0,3.13,1.12,5.29,3.92,5.29C427.43,228.46,428.72,226.36,428.72,223.48Z"/><path class="cls-2" d="M440.33,216.55h1.48v13h-1.48Z"/><path class="cls-2" d="M451.86,223.17v-.38c0-4.64,2.5-6.45,5.69-6.45a6.23,6.23,0,0,1,3.08.71v1.28a7.8,7.8,0,0,0-3.16-.7c-2.37,0-4.05,1.47-4.05,4.91v.63c0,3.33,1.2,5.26,4.07,5.26a6.56,6.56,0,0,0,3.27-.85v1.29a6.68,6.68,0,0,1-3.46.85C453.93,229.72,451.86,227.56,451.86,223.17Z"/><path class="cls-2" d="M470.66,216.55h7.42v1.29h-5.95v4.35h4.59v1.29h-4.59v4.73h6v1.3h-7.48Z"/><path class="cls-1" d="M157.09,227.38a.79.79,0,0,1-.46-.15.77.77,0,0,1-.15-1.07A49.68,49.68,0,0,0,166.58,196a50.15,50.15,0,1,0-90.21,30.18.76.76,0,1,1-1.21.92A51.21,51.21,0,0,1,64.75,196a51.68,51.68,0,1,1,103.35,0,51.2,51.2,0,0,1-10.4,31.1A.76.76,0,0,1,157.09,227.38Z"/><path class="cls-1" d="M129.78,180.87H103.07a.76.76,0,0,1-.76-.76,10.52,10.52,0,0,1,10.5-10.51H120a10.52,10.52,0,0,1,10.51,10.51A.76.76,0,0,1,129.78,180.87Zm-25.91-1.53H129a9,9,0,0,0-9-8.21h-7.23A9,9,0,0,0,103.87,179.34Z"/><path class="cls-1" d="M118.16,171.13H114.7a.76.76,0,0,1-.76-.76v-2.68a2.49,2.49,0,1,1,5,0v2.68A.76.76,0,0,1,118.16,171.13Zm-2.7-1.53h1.93v-1.91a1,1,0,0,0-1.93,0Z"/><path class="cls-1" d="M116.43,166.73a.76.76,0,0,1-.76-.76V145.22a.76.76,0,1,1,1.52,0V166A.76.76,0,0,1,116.43,166.73Z"/><path class="cls-1" d="M100.87,220.78H81.7a.76.76,0,0,1,0-1.52h19.17a.76.76,0,1,1,0,1.52Z"/><path class="cls-1" d="M95.21,217.64l-.15,0a.75.75,0,0,1-.6-.89l2-10.72H85.76l2,10.71a.76.76,0,0,1-1.5.28l-2.19-11.61a.77.77,0,0,1,.75-.9H97.41a.77.77,0,0,1,.59.27.73.73,0,0,1,.16.63L96,217A.77.77,0,0,1,95.21,217.64Z"/><path class="cls-1" d="M147.38,227.38h-32a6.42,6.42,0,0,1-2-12.51l1-6a.76.76,0,0,1,.75-.64h2.43a4.12,4.12,0,0,1,2.89.52c1.65.95,2.89,2.88,3.7,5.76h15.1l.9-5.64a.76.76,0,0,1,.75-.64h2.43a4.14,4.14,0,0,1,2.92.54c1.8,1,3.12,3.29,3.91,6.66a34.91,34.91,0,0,1,.8,6.14c.08,1.54.18,2.88.29,4.1a.77.77,0,0,1-.36.71A6.36,6.36,0,0,1,147.38,227.38Zm-31.71-17.6-.93,5.81a.75.75,0,0,1-.57.62,4.9,4.9,0,0,0,1.16,9.65h32.05a4.83,4.83,0,0,0,2.18-.52c-.09-1.1-.17-2.3-.24-3.66a33.82,33.82,0,0,0-.77-5.87c-.85-3.63-2.18-5.08-3.15-5.66a2.66,2.66,0,0,0-1.9-.4.69.69,0,0,1-.2,0h-1.86l-.9,5.65a.76.76,0,0,1-.76.64H123.45a.76.76,0,0,1-.74-.58c-.69-2.71-1.76-4.56-3.1-5.36a2.72,2.72,0,0,0-1.88-.38.69.69,0,0,1-.2,0Z"/><path class="cls-1" d="M110.62,237.44h-.13a.77.77,0,0,1-.63-.88l1.74-10.9a.76.76,0,1,1,1.5.24l-1.73,10.9A.77.77,0,0,1,110.62,237.44Z"/><path class="cls-1" d="M127.27,237.44a.76.76,0,0,1-.21,0c-.81-.23-2.29-1.93-3.15-10.72a.76.76,0,0,1,1.52-.15c.78,7.94,2,9.3,2.18,9.45a.77.77,0,0,1-.34,1.45Zm.21-1.5Zm0,0Z"/><path class="cls-1" d="M115,209.78H105a.76.76,0,1,1,0-1.52H115a.76.76,0,1,1,0,1.52Z"/><path class="cls-1" d="M136.38,237.44h-.12a.77.77,0,0,1-.63-.88l1.6-10.05a.77.77,0,0,1,.87-.64.78.78,0,0,1,.64.88l-1.6,10A.77.77,0,0,1,136.38,237.44Z"/><path class="cls-1" d="M150.37,226.53a.85.85,0,0,1-.35-.08.76.76,0,0,1-.41-.62c-.12-1.23-.21-2.59-.29-4.15a33.82,33.82,0,0,0-.77-5.87c-.85-3.63-2.18-5.08-3.15-5.66a2.66,2.66,0,0,0-1.9-.4.69.69,0,0,1-.2,0h-1.86l-.9,5.65a.76.76,0,0,1-.76.64H124.44a.76.76,0,0,1-.76-.76v-14a10.64,10.64,0,0,1,10.63-10.63h8.87a10.64,10.64,0,0,1,10.62,10.63V221a6.35,6.35,0,0,1-1.88,4.54,6.25,6.25,0,0,1-1.16.92A.79.79,0,0,1,150.37,226.53Zm-6.45-18.35a4.46,4.46,0,0,1,2.21.62c1.8,1,3.12,3.29,3.91,6.66a34.91,34.91,0,0,1,.8,6.14c0,1,.11,1.83.17,2.65a4.86,4.86,0,0,0,1.27-3.29V201.29a9.12,9.12,0,0,0-9.1-9.11h-8.87a9.12,9.12,0,0,0-9.1,9.11v13.25h13.92l.9-5.64a.76.76,0,0,1,.75-.64h2.43A2.76,2.76,0,0,1,143.92,208.18Z"/><path class="cls-1" d="M153,237.44a.76.76,0,0,1-.21,0c-.81-.23-2.29-1.93-3.15-10.72,0-.27-.05-.56-.07-.86a.75.75,0,0,1,.69-.82.77.77,0,0,1,.83.69c0,.29.05.57.07.84.78,7.93,2,9.3,2.18,9.45a.77.77,0,0,1-.34,1.45Zm.36-1.43Z"/><path class="cls-1" d="M140.78,209.78H130.73a.76.76,0,1,1,0-1.52h10.05a.76.76,0,1,1,0,1.52Z"/><path class="cls-1" d="M82.65,236.81H80.13a.77.77,0,0,1-.61-.3.76.76,0,0,1-.12-.67l3.47-12.57a.76.76,0,0,1,.73-.56h2.63a.74.74,0,0,1,.61.31.76.76,0,0,1,.13.67l-3.59,12.57A.76.76,0,0,1,82.65,236.81Zm-1.52-1.53h.94l3.15-11h-1Z"/><path class="cls-1" d="M104.64,224.24H77.93a.76.76,0,0,1-.76-.76v-6.6a.76.76,0,0,1,.76-.77h26.71a.76.76,0,0,1,.77.77v6.6A.76.76,0,0,1,104.64,224.24Zm-25.95-1.53h25.19v-5.07H78.69Z"/><path class="cls-1" d="M102.62,236.81h-2.51a.77.77,0,0,1-.74-.55l-3.59-12.57a.76.76,0,0,1,.13-.67.74.74,0,0,1,.61-.31h2.63a.77.77,0,0,1,.74.56l3.47,12.57a.8.8,0,0,1-.13.67A.77.77,0,0,1,102.62,236.81Zm-1.94-1.53h.94l-3.05-11h-1Z"/><path class="cls-1" d="M90.76,206a.76.76,0,0,1-.49-.18c-1-.84-4.2-3.94-4.37-8.44-.12-3.28,1.4-6.53,4.52-9.65a.76.76,0,1,1,1.08,1.08c-2.81,2.81-4.18,5.67-4.07,8.51.14,3.88,3,6.6,3.83,7.34a.76.76,0,0,1-.5,1.34Z"/><path class="cls-1" d="M91.06,206a.77.77,0,0,1-.77-.76V192.68a.78.78,0,0,1,.77-.77.77.77,0,0,1,.76.77v12.57A.76.76,0,0,1,91.06,206Z"/><path class="cls-1" d="M91.25,206a.78.78,0,0,1-.58-.26.77.77,0,0,1,.09-1.08,10.86,10.86,0,0,0,3.83-7.34c.1-2.84-1.26-5.7-4.07-8.51a.76.76,0,0,1,1.08-1.08c3.12,3.12,4.64,6.37,4.51,9.65-.17,4.5-3.38,7.6-4.36,8.44A.77.77,0,0,1,91.25,206Z"/></svg>