<svg id="레이어_1" data-name="레이어 1" xmlns="http://www.w3.org/2000/svg" viewBox="0 0 917.41 215.93"><defs><style>.cls-1{fill:#141414;}.cls-2{fill:#3f3f3f;}</style></defs><title>대지 2</title><path class="cls-1" d="M100.16,80.72H107c5.15,0,7.73,2.41,7.73,6.77a6,6,0,0,1-4.56,6.35V94l6.2,10.88h-3.14l-5.81-10.38h-4.46V104.9h-2.75Zm6.62,11.57c3.65,0,5-1.63,5-4.76s-1.42-4.4-5-4.4h-3.83v9.16Z"/><path class="cls-1" d="M117.92,93.08V92.5c0-7.6,3.86-12.18,10.3-12.18s10.17,4.29,10.17,12.22v.58c0,7.6-3.87,12.18-10.27,12.18S117.92,101,117.92,93.08Zm17.51.58V92.54c0-5.88-2.05-9.84-7.35-9.88-4.8,0-7.2,3.9-7.2,9.3v1.12c0,5.84,2.09,9.87,7.31,9.87C133,103,135.43,99,135.43,93.66Z"/><path class="cls-1" d="M140.69,93.08V92.5c0-7.6,3.86-12.18,10.3-12.18s10.17,4.29,10.17,12.22v.58c0,7.6-3.86,12.18-10.27,12.18S140.69,101,140.69,93.08Zm17.51.58V92.54c0-5.88-2-9.84-7.34-9.88-4.81,0-7.21,3.9-7.21,9.3v1.12c0,5.84,2.09,9.87,7.31,9.87C155.8,103,158.2,99,158.2,93.66Z"/><path class="cls-1" d="M164.78,80.72h4.11l6.75,20.43h.07l6.72-20.43h4.08V104.9h-2.79V84.47h-.1l-6.83,20.43h-2.57l-6.76-20.43h-.1V104.9h-2.58Z"/><path class="cls-1" d="M204.68,83.13h-7.13V80.72h17v2.41H207.4V104.9h-2.72Z"/><path class="cls-1" d="M216.14,93.08V92.5c0-7.6,3.86-12.18,10.3-12.18s10.17,4.29,10.17,12.22v.58c0,7.6-3.87,12.18-10.27,12.18S216.14,101,216.14,93.08Zm17.51.58V92.54c0-5.88-2.05-9.84-7.35-9.88-4.8,0-7.2,3.9-7.2,9.3v1.12c0,5.84,2.09,9.87,7.31,9.87C231.25,103,233.65,99,233.65,93.66Z"/><path class="cls-1" d="M240.23,80.72h7.21c5.26,0,7.8,2.59,7.8,7.13,0,4.76-3,7.35-7.45,7.35H243v9.7h-2.79Zm7,12.11c3.62,0,5.05-1.55,5.05-4.8,0-3.42-1.32-4.9-5.12-4.9H243v9.7Z"/><path class="cls-1" d="M258.58,80.72h2.75V104.9h-2.75Z"/><path class="cls-1" d="M272.65,80.72h2.68l8.53,24.18H281l-2.47-7.06h-9.37l-2.4,7.06h-2.65Zm-2.72,14.7h7.69l-3.79-10.88h-.07Z"/><path class="cls-2" d="M100.63,122v-.82a4.79,4.79,0,0,0,2.22.54c1.22,0,1.75-.59,1.75-1.48s-.39-1.19-1.35-1.51l-.76-.28a2.14,2.14,0,0,1-1.74-2.22c0-1.27.81-2.17,2.47-2.17a4,4,0,0,1,1.93.45v.82a4.4,4.4,0,0,0-2-.45c-1,0-1.51.49-1.51,1.27s.28,1.12,1.18,1.44l.78.26c1.17.42,1.92.93,1.92,2.31s-.81,2.39-2.66,2.39A4.47,4.47,0,0,1,100.63,122Z"/><path class="cls-2" d="M111.42,118.4v-.2c0-2.58,1.32-4.13,3.5-4.13s3.46,1.45,3.46,4.15v.19c0,2.58-1.32,4.14-3.49,4.14S111.42,121.09,111.42,118.4Zm6,.19v-.37c0-2-.7-3.35-2.49-3.36-1.64,0-2.45,1.32-2.45,3.16v.38c0,2,.71,3.35,2.48,3.35S117.37,120.42,117.37,118.59Z"/><path class="cls-2" d="M124.69,114.2h.94v7.39h3.59v.82h-4.53Z"/><path class="cls-2" d="M134.61,114.2h1l2.37,6.9h0l2.36-6.9h.89l-2.88,8.21h-.87Z"/><path class="cls-2" d="M147.22,114.2h4.71V115h-3.78v2.75h2.91v.82h-2.91v3H152v.82h-4.74Z"/><path class="cls-2" d="M168.09,119.18l-2.62-5h1l2.11,4.08h0l2.1-4.08h.9l-2.6,5v3.23h-.92Z"/><path class="cls-2" d="M177.13,118.4v-.2c0-2.58,1.31-4.13,3.5-4.13s3.45,1.45,3.45,4.15v.19c0,2.58-1.31,4.14-3.49,4.14S177.13,121.09,177.13,118.4Zm6,.19v-.37c0-2-.7-3.35-2.5-3.36-1.63,0-2.45,1.32-2.45,3.16v.38c0,2,.71,3.35,2.49,3.35S183.08,120.42,183.08,118.59Z"/><path class="cls-2" d="M190.35,119.56v-5.37h.94v5.32c0,1.74.71,2.28,2,2.28s2-.53,2-2.29v-5.31h.87v5.36c0,2.09-1,3-2.86,3S190.35,121.61,190.35,119.56Z"/><path class="cls-2" d="M202.84,114.2h2.31c1.75,0,2.62.82,2.62,2.3a2,2,0,0,1-1.55,2.16v.06l2.11,3.69h-1.07l-2-3.52h-1.51v3.52h-.94Zm2.25,3.93c1.24,0,1.69-.55,1.69-1.62s-.49-1.49-1.7-1.49h-1.3v3.11Z"/><path class="cls-2" d="M221.8,118.4v-.25c0-2.93,1.59-4.08,3.61-4.08a3.87,3.87,0,0,1,2,.45v.81a4.9,4.9,0,0,0-2-.44c-1.5,0-2.56.93-2.56,3.1v.41c0,2.1.75,3.33,2.58,3.33a4,4,0,0,0,2.06-.54V122a4.17,4.17,0,0,1-2.18.54C223.12,122.55,221.8,121.18,221.8,118.4Z"/><path class="cls-2" d="M233.71,114.2h.95v3.56h4V114.2h.93v8.21h-.93v-3.83h-4v3.83h-.95Z"/><path class="cls-2" d="M245.89,118.4v-.2c0-2.58,1.31-4.13,3.5-4.13s3.45,1.45,3.45,4.15v.19c0,2.58-1.31,4.14-3.49,4.14S245.89,121.09,245.89,118.4Zm5.94.19v-.37c0-2-.69-3.35-2.49-3.36-1.63,0-2.45,1.32-2.45,3.16v.38c0,2,.71,3.35,2.48,3.35S251.83,120.42,251.83,118.59Z"/><path class="cls-2" d="M259.2,114.2h.93v8.21h-.93Z"/><path class="cls-2" d="M266.5,118.4v-.25c0-2.93,1.59-4.08,3.61-4.08a3.87,3.87,0,0,1,1.95.45v.81a4.93,4.93,0,0,0-2-.44c-1.5,0-2.56.93-2.56,3.1v.41c0,2.1.75,3.33,2.57,3.33a4,4,0,0,0,2.07-.54V122a4.17,4.17,0,0,1-2.18.54C267.82,122.55,266.5,121.18,266.5,118.4Z"/><path class="cls-2" d="M278.42,114.2h4.71V115h-3.78v2.75h2.91v.82h-2.91v3h3.81v.82h-4.74Z"/><path class="cls-1" d="M79.64,121.07a.53.53,0,0,1-.29-.1.48.48,0,0,1-.1-.68,31.49,31.49,0,0,0,6.4-19.13,31.79,31.79,0,0,0-63.58,0,31.49,31.49,0,0,0,6.4,19.13.49.49,0,0,1-.09.68.48.48,0,0,1-.68-.1,32.42,32.42,0,0,1-6.6-19.71,32.76,32.76,0,0,1,65.52,0A32.47,32.47,0,0,1,80,120.87.49.49,0,0,1,79.64,121.07Z"/><path class="cls-1" d="M62.33,91.58H45.4a.49.49,0,0,1-.49-.48,6.67,6.67,0,0,1,6.66-6.66h4.58a6.66,6.66,0,0,1,6.66,6.66A.48.48,0,0,1,62.33,91.58Zm-16.43-1H61.83a5.7,5.7,0,0,0-5.68-5.2H51.57A5.7,5.7,0,0,0,45.9,90.61Z"/><path class="cls-1" d="M55,85.41H52.77a.49.49,0,0,1-.49-.49V83.23a1.58,1.58,0,0,1,3.16,0v1.69A.48.48,0,0,1,55,85.41Zm-1.71-1h1.22V83.23a.61.61,0,0,0-1.22,0Z"/><path class="cls-1" d="M53.86,82.62a.48.48,0,0,1-.48-.49V69a.48.48,0,0,1,.48-.48.49.49,0,0,1,.49.48V82.13A.49.49,0,0,1,53.86,82.62Z"/><path class="cls-1" d="M44,116.88H31.85a.48.48,0,0,1-.49-.48.49.49,0,0,1,.49-.49H44a.48.48,0,0,1,.48.49A.47.47,0,0,1,44,116.88Z"/><path class="cls-1" d="M40.41,114.89h-.09a.49.49,0,0,1-.39-.57l1.29-6.79h-6.8l1.28,6.78a.48.48,0,0,1-.39.57.48.48,0,0,1-.56-.39l-1.39-7.35a.5.5,0,0,1,.48-.58h8a.49.49,0,0,1,.37.18.48.48,0,0,1,.1.4l-1.4,7.37A.47.47,0,0,1,40.41,114.89Z"/><path class="cls-1" d="M73.49,121.07H53.17a4.07,4.07,0,0,1-2.88-6.95,4.1,4.1,0,0,1,1.6-1l.6-3.78a.48.48,0,0,1,.48-.41H54.5a2.62,2.62,0,0,1,1.83.34,5.71,5.71,0,0,1,2.35,3.65h9.58l.56-3.58a.48.48,0,0,1,.48-.41h1.54a2.64,2.64,0,0,1,1.85.35c1.14.66,2,2.08,2.48,4.22a22.46,22.46,0,0,1,.51,3.89c0,1,.11,1.83.18,2.6a.48.48,0,0,1-.23.45A4,4,0,0,1,73.49,121.07ZM53.38,109.91l-.59,3.68a.47.47,0,0,1-.36.39,3.22,3.22,0,0,0-1.46.82,3.13,3.13,0,0,0-.91,2.2,3.07,3.07,0,0,0,1.47,2.63,3,3,0,0,0,1.64.47H73.49a3,3,0,0,0,1.38-.33c-.06-.7-.11-1.46-.16-2.32a21.65,21.65,0,0,0-.48-3.72c-.54-2.3-1.39-3.22-2-3.59a1.69,1.69,0,0,0-1.2-.25l-.13,0H69.72l-.57,3.58a.48.48,0,0,1-.48.4H58.31a.49.49,0,0,1-.47-.36,5.33,5.33,0,0,0-2-3.4,1.68,1.68,0,0,0-1.19-.24l-.13,0Z"/><path class="cls-1" d="M50.18,127.44H50.1a.49.49,0,0,1-.4-.56L50.8,120a.48.48,0,1,1,1,.15L50.65,127A.47.47,0,0,1,50.18,127.44Z"/><path class="cls-1" d="M60.74,127.44a.34.34,0,0,1-.14,0c-.51-.14-1.45-1.22-2-6.79a.48.48,0,0,1,.43-.53.49.49,0,0,1,.53.44c.49,5,1.28,5.89,1.38,6a.49.49,0,0,1-.21.92Zm.13-1Zm0,0Z"/><path class="cls-1" d="M53,109.91H46.59a.49.49,0,0,1,0-1H53a.49.49,0,0,1,0,1Z"/><path class="cls-1" d="M66.51,127.44h-.07a.49.49,0,0,1-.41-.56l1-6.37a.48.48,0,1,1,1,.15L67,127A.48.48,0,0,1,66.51,127.44Z"/><path class="cls-1" d="M75.38,120.53a.43.43,0,0,1-.22-.06.49.49,0,0,1-.27-.38c-.07-.79-.13-1.65-.18-2.64a21.65,21.65,0,0,0-.48-3.72c-.54-2.3-1.39-3.22-2-3.59a1.69,1.69,0,0,0-1.2-.25l-.13,0H69.72l-.57,3.58a.48.48,0,0,1-.48.4H58.94a.47.47,0,0,1-.48-.48v-8.89a6.74,6.74,0,0,1,6.74-6.73h5.62a6.75,6.75,0,0,1,6.74,6.73V117a4.17,4.17,0,0,1-1.93,3.46A.59.59,0,0,1,75.38,120.53ZM71.29,108.9a2.71,2.71,0,0,1,1.4.39c1.14.66,2,2.08,2.48,4.22a22.46,22.46,0,0,1,.51,3.89c0,.61.07,1.16.1,1.68a3.09,3.09,0,0,0,.81-2.08V104.52a5.78,5.78,0,0,0-5.77-5.77H65.2a5.77,5.77,0,0,0-5.77,5.77v8.41h8.83l.56-3.58a.48.48,0,0,1,.48-.41h1.54A2.23,2.23,0,0,1,71.29,108.9Z"/><path class="cls-1" d="M77.07,127.44a.3.3,0,0,1-.13,0c-.51-.14-1.45-1.22-2-6.79,0-.18,0-.36,0-.55a.49.49,0,0,1,1-.08c0,.18,0,.36,0,.53.49,5,1.28,5.9,1.38,6a.5.5,0,0,1,.25.57A.49.49,0,0,1,77.07,127.44Zm.23-.91Z"/><path class="cls-1" d="M69.3,109.91H62.93a.49.49,0,1,1,0-1H69.3a.49.49,0,1,1,0,1Z"/><path class="cls-1" d="M32.45,127h-1.6a.47.47,0,0,1-.38-.19.48.48,0,0,1-.08-.42l2.2-8a.46.46,0,0,1,.46-.35h1.67a.48.48,0,0,1,.47.61l-2.28,8A.48.48,0,0,1,32.45,127Zm-1-1h.59l2-7h-.66Z"/><path class="cls-1" d="M46.39,119.07H29.46a.48.48,0,0,1-.49-.48v-4.18a.49.49,0,0,1,.49-.49H46.39a.49.49,0,0,1,.49.49v4.18A.48.48,0,0,1,46.39,119.07Zm-16.45-1h16v-3.22h-16Z"/><path class="cls-1" d="M45.11,127h-1.6a.48.48,0,0,1-.46-.35l-2.28-8a.48.48,0,0,1,.47-.61h1.67a.48.48,0,0,1,.47.35l2.19,8a.48.48,0,0,1-.08.42A.47.47,0,0,1,45.11,127Zm-1.23-1h.59l-1.93-7h-.66Z"/><path class="cls-1" d="M37.59,107.52a.47.47,0,0,1-.31-.12,7.87,7.87,0,0,1-2.77-5.35c-.08-2.08.88-4.14,2.86-6.11a.49.49,0,0,1,.69,0,.48.48,0,0,1,0,.68c-1.78,1.78-2.65,3.59-2.58,5.4a6.84,6.84,0,0,0,2.43,4.65.49.49,0,0,1,.05.68A.5.5,0,0,1,37.59,107.52Z"/><path class="cls-1" d="M37.78,107.52a.48.48,0,0,1-.48-.48v-8a.48.48,0,1,1,1,0v8A.48.48,0,0,1,37.78,107.52Z"/><path class="cls-1" d="M37.9,107.52a.48.48,0,0,1-.36-.17.47.47,0,0,1,.05-.68A6.92,6.92,0,0,0,40,102c.06-1.81-.8-3.62-2.58-5.4a.48.48,0,0,1,.68-.68c2,2,2.94,4,2.86,6.11a7.82,7.82,0,0,1-2.76,5.35A.49.49,0,0,1,37.9,107.52Z"/></svg>